# xmcd
#
# Track frame offsets:
#	150
#	11525
#	22952
#	40700
#	54185
#	65155
#	78350
#	91092
#	106400
#	117347
#	133250
#	145325
#	161657
#	173097
#	187202
#
# Disc length: 2655
#
# Revision: 1
# Processed by: cddbd v1.5.1PL0 Copyright (c) Steve Scherf et al.
# Submitted via: dBpowerAMP V4.0
# Normalized: r0:TDELIM( - )
#
DISCID=c60a5d0f
DTITLE=Various Artist - Love songs CD2
DYEAR=1996
DGENRE=Country
TTITLE0=Crystal Gayle - It´s all right with me
TTITLE1=Billie Jo Spears - Stand by your man
TTITLE2=Glen Campbell - The last thing on my mind
TTITLE3=Slim Whitman - I´ll take your home again Kathleen
TTITLE4=Willie Nelson - Hello walls
TTITLE5=Tanya Tucker - One love at a time
TTITLE6=Tex Ritter - High noon
TTITLE7=Olivia Newton John - Please Mr. Please
TTITLE8=George Jones - Ain´t it funny what a fool will do
TTITLE9=Juice Newton - Come to me
TTITLE10=Willie Nelson with Shirley Collie - Our chain of love
TTITLE11=Olivia Newton John - I love you. I honestly love you
TTITLE12=Glen Campbell - Everything a man could ever need
TTITLE13=Lacy J Dalton - Still crazy after all these years
TTITLE14=George Jones and Melba Montgomery - (We must have been) Out of our minds
EXTD=
EXTT0=
EXTT1=
EXTT2=
EXTT3=
EXTT4=
EXTT5=
EXTT6=
EXTT7=
EXTT8=
EXTT9=
EXTT10=
EXTT11=
EXTT12=
EXTT13=
EXTT14=
PLAYORDER=
